<svg xmlns="http://www.w3.org/2000/svg" xmlns:xlink="http://www.w3.org/1999/xlink" viewBox="0 0 30.78 30.78"><defs><style>.cls-1{fill:none;}.cls-2{clip-path:url(#clip-path);}.cls-3{fill:#1658a4;}.cls-4{fill:#fff;}</style><clipPath id="clip-path" transform="translate(0 0)"><rect class="cls-1" width="30.78" height="30.78"/></clipPath></defs><g id="Ebene_2" data-name="Ebene 2"><g id="Ebene_1-2" data-name="Ebene 1"><g class="cls-2"><rect class="cls-3" width="30.78" height="30.78" rx="4.62"/><path class="cls-4" d="M17.11,13.64l-.44,2.25c-.29,1.53-1.68,3.36-3.19,3.32a1.73,1.73,0,0,1-1.65-1.66A4.3,4.3,0,0,1,15.92,13a4.87,4.87,0,0,1,.72,0,.55.55,0,0,1,.47.63m-1.47-6A9.15,9.15,0,0,0,6.24,17,7.47,7.47,0,0,0,14,24.65a10,10,0,0,0,4.08-.75.55.55,0,0,0,.32-.7.6.6,0,0,0-.79-.32,8.94,8.94,0,0,1-3.33.59,6.25,6.25,0,0,1-6.61-6.58c0-5,3.53-8.1,7.72-8.1,4,0,6.23,2.54,6.23,6.08,0,2.82-1.47,4.48-2.78,4.46-.85,0-1.16-.88-.77-2.73l.72-3.66a.9.9,0,0,0-.68-1,8,8,0,0,0-1.92-.23,5.92,5.92,0,0,0-6.1,5.78,2.82,2.82,0,0,0,2.78,3.07,4.07,4.07,0,0,0,3.63-2.14h.1a1.84,1.84,0,0,0,1.9,2.14c2.42,0,4.59-2.14,4.59-5.8,0-4.07-3-7-7.49-7" transform="translate(0 0)"/></g></g></g></svg>