<svg xmlns="http://www.w3.org/2000/svg" xmlns:xlink="http://www.w3.org/1999/xlink" viewBox="0 0 31.84 32.01"><defs><style>.cls-1,.cls-4{fill:none;}.cls-2{clip-path:url(#clip-path);}.cls-3{fill:#fff;}.cls-4{stroke:#1658a4;stroke-miterlimit:10;stroke-width:0.5px;}</style><clipPath id="clip-path" transform="translate(0 0)"><rect class="cls-1" width="31.84" height="32.01"/></clipPath></defs><g id="Ebene_2" data-name="Ebene 2"><g id="Ebene_1-2" data-name="Ebene 1"><g class="cls-2"><path class="cls-3" d="M20.42,11.33l-.82,4.18c-.53,2.83-3.11,6.23-5.92,6.15a3.19,3.19,0,0,1-3.06-3.08c-.19-4.54,3.27-8.51,7.59-8.51a8.67,8.67,0,0,1,1.35.1,1,1,0,0,1,.86,1.16M17.69.25C7.08.25.25,8.31.25,17.63c0,8.7,6.64,14.13,14.48,14.13a18.85,18.85,0,0,0,7.58-1.38,1,1,0,0,0,.57-1.31,1.1,1.1,0,0,0-1.46-.58,16.63,16.63,0,0,1-6.17,1.1C8.18,29.59,3,24.92,3,17.36c0-9.19,6.55-15,14.34-15,7.4,0,11.56,4.71,11.56,11.27,0,5.26-2.73,8.33-5.16,8.29-1.58-.05-2.15-1.63-1.44-5.07L23.62,10A1.68,1.68,0,0,0,22.35,8.1a14.71,14.71,0,0,0-3.56-.43A11,11,0,0,0,7.46,18.4c0,3.58,2.39,5.71,5.16,5.71a7.57,7.57,0,0,0,6.74-4h.19c-.14,2.77,1.63,4,3.54,4,4.49,0,8.5-4,8.5-10.78C31.59,5.77,26,.25,17.69.25" transform="translate(0 0)"/><path class="cls-4" d="M20.42,11.33l-.82,4.18c-.53,2.83-3.11,6.23-5.92,6.15a3.19,3.19,0,0,1-3.06-3.08c-.19-4.54,3.27-8.51,7.59-8.51a8.67,8.67,0,0,1,1.35.1A1,1,0,0,1,20.42,11.33ZM17.69.25C7.08.25.25,8.31.25,17.63c0,8.7,6.64,14.13,14.48,14.13a18.85,18.85,0,0,0,7.58-1.38,1,1,0,0,0,.57-1.31,1.1,1.1,0,0,0-1.46-.58,16.63,16.63,0,0,1-6.17,1.1C8.18,29.59,3,24.92,3,17.36c0-9.19,6.55-15,14.34-15,7.4,0,11.56,4.71,11.56,11.27,0,5.26-2.73,8.33-5.16,8.29-1.58-.05-2.15-1.63-1.44-5.07L23.62,10A1.68,1.68,0,0,0,22.35,8.1a14.71,14.71,0,0,0-3.56-.43A11,11,0,0,0,7.46,18.4c0,3.58,2.39,5.71,5.16,5.71a7.57,7.57,0,0,0,6.74-4h.19c-.14,2.77,1.63,4,3.54,4,4.49,0,8.5-4,8.5-10.78C31.59,5.77,26,.25,17.69.25Z" transform="translate(0 0)"/></g></g></g></svg>