<svg xmlns="http://www.w3.org/2000/svg" xmlns:xlink="http://www.w3.org/1999/xlink" viewBox="0 0 32.09 32.26"><defs><style>.cls-1,.cls-4{fill:none;}.cls-2{clip-path:url(#clip-path);}.cls-3{fill:#fff;}.cls-4{stroke:#fec700;stroke-miterlimit:10;stroke-width:0.75px;}</style><clipPath id="clip-path" transform="translate(0 0)"><rect class="cls-1" width="32.09" height="32.26"/></clipPath></defs><g id="Ebene_2" data-name="Ebene 2"><g id="Ebene_1-2" data-name="Ebene 1"><g class="cls-2"><path class="cls-3" d="M20.54,11.46l-.82,4.17c-.53,2.84-3.11,6.23-5.91,6.16a3.19,3.19,0,0,1-3.06-3.08c-.19-4.55,3.27-8.51,7.59-8.51a10.22,10.22,0,0,1,1.34.09,1,1,0,0,1,.86,1.17M17.81.37C7.21.37.38,8.43.38,17.76.38,26.45,7,31.88,14.85,31.88a18.65,18.65,0,0,0,7.58-1.38A1,1,0,0,0,23,29.19a1.11,1.11,0,0,0-1.46-.58,16.43,16.43,0,0,1-6.17,1.1C8.31,29.71,3.1,25.05,3.1,17.49c0-9.19,6.54-15,14.33-15C24.84,2.46,29,7.17,29,13.73,29,19,26.27,22.06,23.83,22c-1.57,0-2.15-1.63-1.43-5.07l1.34-6.78a1.67,1.67,0,0,0-1.26-1.93,14.73,14.73,0,0,0-3.57-.43A11,11,0,0,0,7.59,18.53c0,3.58,2.39,5.7,5.16,5.7a7.56,7.56,0,0,0,6.73-4h.2c-.15,2.76,1.62,4,3.53,4,4.49,0,8.5-4,8.5-10.77C31.71,5.9,26.13.37,17.81.37" transform="translate(0 0)"/><path class="cls-4" d="M20.54,11.46l-.82,4.17c-.53,2.84-3.11,6.23-5.91,6.16a3.19,3.19,0,0,1-3.06-3.08c-.19-4.55,3.27-8.51,7.59-8.51a10.22,10.22,0,0,1,1.34.09A1,1,0,0,1,20.54,11.46ZM17.81.37C7.21.37.38,8.43.38,17.76.38,26.45,7,31.88,14.85,31.88a18.65,18.65,0,0,0,7.58-1.38A1,1,0,0,0,23,29.19a1.11,1.11,0,0,0-1.46-.58,16.43,16.43,0,0,1-6.17,1.1C8.31,29.71,3.1,25.05,3.1,17.49c0-9.19,6.54-15,14.33-15C24.84,2.46,29,7.17,29,13.73,29,19,26.27,22.06,23.83,22c-1.57,0-2.15-1.63-1.43-5.07l1.34-6.78a1.67,1.67,0,0,0-1.26-1.93,14.73,14.73,0,0,0-3.57-.43A11,11,0,0,0,7.59,18.53c0,3.58,2.39,5.7,5.16,5.7a7.56,7.56,0,0,0,6.73-4h.2c-.15,2.76,1.62,4,3.53,4,4.49,0,8.5-4,8.5-10.77C31.71,5.9,26.13.37,17.81.37Z" transform="translate(0 0)"/></g></g></g></svg>