<svg xmlns="http://www.w3.org/2000/svg" xmlns:xlink="http://www.w3.org/1999/xlink" viewBox="0 0 138 138"><defs><style>.cls-1{fill:none;}.cls-2{clip-path:url(#clip-path);}.cls-3{fill:#fdc40d;}.cls-4,.cls-6{font-size:17px;}.cls-4,.cls-6,.cls-8{fill:#fff;}.cls-4{font-family:Wingdings3, "Wingdings 3";}.cls-5{letter-spacing:0.09em;}.cls-6{font-family:Roboto-Bold, Roboto;font-weight:700;}.cls-7{letter-spacing:-0.01em;}</style><clipPath id="clip-path"><rect class="cls-1" width="149" height="138"/></clipPath></defs><g id="Ebene_2" data-name="Ebene 2"><g id="Ebene_1-2" data-name="Ebene 1"><g class="cls-2"><rect class="cls-3" width="138" height="138" rx="8"/></g><text class="cls-4" transform="translate(21 100.11)"><tspan class="cls-5" x="17.4" y="0">	</tspan></text><text class="cls-6" transform="translate(44 100.11)">Mitglied </text><text class="cls-6" transform="translate(110.86 100.11)"> </text><text class="cls-6" transform="translate(21 119.11)"> </text><text class="cls-6" transform="translate(44 119.11)">we<tspan class="cls-7" x="21.68" y="0">r</tspan><tspan x="27.73" y="0">den</tspan></text><g class="cls-2"><path class="cls-8" d="M69.74,17.5c-6.19,8.31-16.37,24-16.37,33.41a16.38,16.38,0,1,0,32.75,0c0-9.47-10.18-25.1-16.38-33.41m0-5.5S89.49,36.32,89.49,50.91a19.75,19.75,0,1,1-39.49,0C50,36.32,69.74,12,69.74,12"/><path class="cls-8" d="M55.49,49.78a1.68,1.68,0,0,1,3.36,0A11.54,11.54,0,0,0,70.38,61.31a1.69,1.69,0,1,1,0,3.37,14.9,14.9,0,0,1-14.89-14.9"/></g></g></g></svg>