<svg xmlns="http://www.w3.org/2000/svg" xmlns:xlink="http://www.w3.org/1999/xlink" viewBox="0 0 38 38"><defs><style>.cls-1{fill:none;}.cls-2{clip-path:url(#clip-path);}.cls-3{fill:#0960ac;}</style><clipPath id="clip-path"><rect class="cls-1" width="38" height="38"/></clipPath></defs><g id="Ebene_2" data-name="Ebene 2"><g id="Ebene_1-2" data-name="Ebene 1"><g class="cls-2"><path class="cls-3" d="M19,35.19H3.52A3.53,3.53,0,0,1,0,31.67V6.33A3.52,3.52,0,0,1,3.52,2.82H33.07a3.52,3.52,0,0,1,3.52,3.51V19.7H35.18V6.33a2.11,2.11,0,0,0-2.11-2.11H3.52A2.11,2.11,0,0,0,1.41,6.33V31.67a2.11,2.11,0,0,0,2.11,2.11H19Z"/></g><rect class="cls-3" x="0.7" y="9.85" width="26.74" height="1.41"/><rect class="cls-3" x="28.85" y="9.85" width="1.41" height="1.41"/><rect class="cls-3" x="31.67" y="9.85" width="4.22" height="1.41"/><rect class="cls-3" x="30.26" width="1.41" height="7.04"/><rect class="cls-3" x="4.93" width="1.41" height="7.04"/><g class="cls-2"><path class="cls-3" d="M28.85,38a9.15,9.15,0,1,1,8.59-12.31l-1.32.48a7.74,7.74,0,1,0-7.27,10.42,7.71,7.71,0,0,0,7.62-6.38l1.39.24a9.12,9.12,0,0,1-9,7.55"/><path class="cls-3" d="M38,28.85H36.59a8.62,8.62,0,0,0-.08-1.14l1.39-.21a8.67,8.67,0,0,1,.1,1.35"/></g><rect class="cls-3" x="28.15" y="23.93" width="1.41" height="9.85"/><rect class="cls-3" x="23.93" y="28.15" width="9.85" height="3"/><g class="cls-2"><path class="cls-3" d="M7.74,16.89Zm0,1.41a1.41,1.41,0,1,1,1.41-1.41A1.41,1.41,0,0,1,7.74,18.3"/><path class="cls-3" d="M7.74,26.74Zm0,1.41a1.41,1.41,0,1,1,1.41-1.41,1.41,1.41,0,0,1-1.41,1.41"/><path class="cls-3" d="M18.3,16.89Zm0,1.41a1.41,1.41,0,1,1,1.4-1.41,1.41,1.41,0,0,1-1.4,1.41"/><path class="cls-3" d="M28.85,16.89Zm0,1.41a1.41,1.41,0,1,1,1.41-1.41,1.42,1.42,0,0,1-1.41,1.41"/></g></g></g></svg>