<svg xmlns="http://www.w3.org/2000/svg" xmlns:xlink="http://www.w3.org/1999/xlink" viewBox="0 0 29.23 29.23"><defs><style>.cls-1{fill:none;}.cls-2{clip-path:url(#clip-path);}.cls-3{fill:#1658a4;}.cls-4{fill:#fff;}</style><clipPath id="clip-path" transform="translate(0 0)"><rect class="cls-1" width="29.23" height="29.23"/></clipPath></defs><g id="Ebene_2" data-name="Ebene 2"><g id="Ebene_1-2" data-name="Ebene 1"><g class="cls-2"><rect class="cls-3" width="29.23" height="29.23" rx="3.85"/><path class="cls-4" d="M7.33,5.05A2.3,2.3,0,1,1,5,7.35a2.3,2.3,0,0,1,2.31-2.3m-2,6.35h4V24.18h-4Z" transform="translate(0 0)"/><path class="cls-4" d="M11.81,11.4h3.81v1.75h.06a4.16,4.16,0,0,1,3.76-2.07c4,0,4.76,2.65,4.76,6.09v7h-4V18c0-1.49,0-3.39-2.06-3.39s-2.39,1.61-2.39,3.28v6.32h-4Z" transform="translate(0 0)"/></g></g></g></svg>