<svg xmlns="http://www.w3.org/2000/svg" xmlns:xlink="http://www.w3.org/1999/xlink" viewBox="0 0 30.78 30.78"><defs><style>.cls-1{fill:none;}.cls-2{clip-path:url(#clip-path);}.cls-3{fill:#1658a4;}.cls-4{fill:#fff;}</style><clipPath id="clip-path" transform="translate(0 0)"><rect class="cls-1" width="30.78" height="30.78"/></clipPath></defs><g id="Ebene_2" data-name="Ebene 2"><g id="Ebene_1-2" data-name="Ebene 1"><g class="cls-2"><rect class="cls-3" width="30.78" height="30.78" rx="4.62"/><path class="cls-4" d="M18.94,23.64a1.92,1.92,0,1,1,1.91-1.92,1.92,1.92,0,0,1-1.91,1.92M9.83,17.93A1.92,1.92,0,1,1,11.74,16a1.91,1.91,0,0,1-1.91,1.92M18.94,8.6A1.92,1.92,0,1,1,17,10.52,1.91,1.91,0,0,1,18.94,8.6m0,10.22a2.92,2.92,0,0,0-2.05.85l-4.38-2.54a2.93,2.93,0,0,0,0-2.15l4.05-2.77A2.9,2.9,0,1,0,16,10.52a3,3,0,0,0,.11.79L12,14.13A2.9,2.9,0,1,0,12,18l4.35,2.51a2.9,2.9,0,1,0,2.62-1.66" transform="translate(0 0)"/></g></g></g></svg>