<svg xmlns="http://www.w3.org/2000/svg" xmlns:xlink="http://www.w3.org/1999/xlink" viewBox="0 0 35.71 35.71"><defs><style>.cls-1{fill:none;}.cls-2{clip-path:url(#clip-path);}.cls-3{fill:#fff;}</style><clipPath id="clip-path" transform="translate(0 0)"><rect class="cls-1" width="35.71" height="35.71"/></clipPath></defs><g id="Ebene_2" data-name="Ebene 2"><g id="Ebene_1-2" data-name="Ebene 1"><g class="cls-2"><path class="cls-3" d="M17.85,1.19A16.67,16.67,0,1,0,34.52,17.85,16.68,16.68,0,0,0,17.85,1.19m0,34.52A17.86,17.86,0,1,1,35.71,17.85,17.88,17.88,0,0,1,17.85,35.71" transform="translate(0 0)"/><path class="cls-3" d="M9.25,12.2a5,5,0,1,1,5,5h0a5,5,0,0,1-5-5m11.25,0a6.22,6.22,0,1,0-9.06,5.53A8.35,8.35,0,0,0,6,25.56a.6.6,0,1,0,1.19,0,7.14,7.14,0,0,1,7.14-7.14h0A7.12,7.12,0,0,1,18.81,20a1.45,1.45,0,0,1,.6-1,8.34,8.34,0,0,0-2.28-1.27A6.22,6.22,0,0,0,20.5,12.2" transform="translate(0 0)"/><path class="cls-3" d="M28,27.08H20.83V20.77H28Zm-6.31-8.57a2.74,2.74,0,1,1,5.48,0v1.07H21.66Zm6.9,1.07h-.23V18.51a3.93,3.93,0,0,0-7.86,0v1.07h-.24a.58.58,0,0,0-.59.59v7.5a.59.59,0,0,0,.59.6h8.33a.6.6,0,0,0,.6-.6v-7.5a.59.59,0,0,0-.6-.59" transform="translate(0 0)"/><path class="cls-3" d="M24.4,22.54a.61.61,0,0,1,.61.61.61.61,0,1,1-1.22,0,.61.61,0,0,1,.61-.61m-.56,2.23v1.47H25V24.77a1.72,1.72,0,1,0-1.11,0" transform="translate(0 0)"/></g></g></g></svg>