<svg xmlns="http://www.w3.org/2000/svg" xmlns:xlink="http://www.w3.org/1999/xlink" viewBox="0 0 39.49 58.66"><defs><style>.cls-1{fill:none;}.cls-2{clip-path:url(#clip-path);}.cls-3{fill:#fff;}</style><clipPath id="clip-path" transform="translate(0 0)"><rect class="cls-1" width="39.49" height="58.66"/></clipPath></defs><g id="Ebene_2" data-name="Ebene 2"><g id="Ebene_1-2" data-name="Ebene 1"><g class="cls-2"><path class="cls-3" d="M19.74,5.5c-6.19,8.31-16.37,24-16.37,33.41a16.38,16.38,0,1,0,32.75,0c0-9.47-10.18-25.1-16.38-33.41m0-5.5S39.49,24.32,39.49,38.91A19.75,19.75,0,1,1,0,38.91C0,24.32,19.74,0,19.74,0" transform="translate(0 0)"/><path class="cls-3" d="M5.49,37.78a1.68,1.68,0,0,1,3.36,0A11.54,11.54,0,0,0,20.38,49.31a1.69,1.69,0,1,1,0,3.37A14.9,14.9,0,0,1,5.49,37.78" transform="translate(0 0)"/></g></g></g></svg>