<svg xmlns="http://www.w3.org/2000/svg" xmlns:xlink="http://www.w3.org/1999/xlink" viewBox="0 0 32.91 32.91"><defs><style>.cls-1{fill:none;}.cls-2{clip-path:url(#clip-path);}.cls-3{fill:#fff;}</style><clipPath id="clip-path" transform="translate(0 0)"><rect class="cls-1" width="32.91" height="32.91"/></clipPath></defs><g id="Ebene_2" data-name="Ebene 2"><g id="Ebene_1-2" data-name="Ebene 1"><g class="cls-2"><path class="cls-3" d="M26.54,31.47h0A24.93,24.93,0,0,1,8.79,24.12,25,25,0,0,1,1.43,6.37,5,5,0,0,1,6.37,1.43a5.34,5.34,0,0,1,.69.05,4.85,4.85,0,0,1,1.06.27.88.88,0,0,1,.55.67l1.1,7a.82.82,0,0,1-.29.78,4.89,4.89,0,0,1-2.42,1.06l-.82.12.23.79A20.9,20.9,0,0,0,20.74,26.44l.8.23.11-.82a5,5,0,0,1,1.06-2.43.89.89,0,0,1,.79-.29l7,1.11a.83.83,0,0,1,.66.52,4.6,4.6,0,0,1,.28,1.09,4,4,0,0,1,0,.69,4.93,4.93,0,0,1-4.93,4.93m6.31-5.81a6.18,6.18,0,0,0-.37-1.42,2.29,2.29,0,0,0-1.77-1.42l-7-1.1a2.29,2.29,0,0,0-2.13.8,6.38,6.38,0,0,0-1.2,2.31A19.5,19.5,0,0,1,8.07,12.5a6.4,6.4,0,0,0,2.32-1.19,2.29,2.29,0,0,0,.8-2.13l-1.11-7A2.3,2.3,0,0,0,8.63.41,6.56,6.56,0,0,0,7.26.06,6.65,6.65,0,0,0,6.37,0,6.38,6.38,0,0,0,0,6.37,26.35,26.35,0,0,0,7.77,25.13a26.36,26.36,0,0,0,18.77,7.78h0a6.38,6.38,0,0,0,6.37-6.37,6.29,6.29,0,0,0-.06-.88" transform="translate(0 0)"/></g></g></g></svg>