<svg xmlns="http://www.w3.org/2000/svg" xmlns:xlink="http://www.w3.org/1999/xlink" viewBox="0 0 30.78 30.78"><defs><style>.cls-1{fill:none;}.cls-2{clip-path:url(#clip-path);}.cls-3{fill:#1658a4;}.cls-4{fill:#fff;}</style><clipPath id="clip-path" transform="translate(0 0)"><rect class="cls-1" width="30.78" height="30.78"/></clipPath></defs><g id="Ebene_2" data-name="Ebene 2"><g id="Ebene_1-2" data-name="Ebene 1"><g class="cls-2"><rect class="cls-3" width="30.78" height="30.78" rx="4.62"/><path class="cls-4" d="M11.89,19.53h7.67a.41.41,0,1,0,0-.81H11.89a.41.41,0,0,0,0,.81" transform="translate(0 0)"/><path class="cls-4" d="M11.83,21.88H19.5a.4.4,0,1,0,0-.8H11.83a.4.4,0,1,0,0,.8" transform="translate(0 0)"/><path class="cls-4" d="M21.62,14.12h-1a.45.45,0,0,0-.45.45.46.46,0,0,0,.45.46h1a.47.47,0,0,0,.46-.46.46.46,0,0,0-.46-.45" transform="translate(0 0)"/><path class="cls-4" d="M23.82,19.09a1.21,1.21,0,0,1-1.21,1.21H21.9V16.37H9.43V20.3H8.78a1.22,1.22,0,0,1-1.22-1.21v-5.5a1.22,1.22,0,0,1,1.22-1.21H22.61a1.21,1.21,0,0,1,1.21,1.21Zm-2.73,3a1.21,1.21,0,0,1-1.21,1.21H11.45a1.21,1.21,0,0,1-1.21-1.21V17.17H21.09ZM11.11,7A.07.07,0,0,1,11.18,7h6.58V8.6a.87.87,0,0,0,.87.88h1.64v2.09H11.11Zm7.45.5,1,1,.19.19H18.63a.07.07,0,0,1-.07-.07Zm4.05,4H21.08V8.91l-.1-.1,0,0L19.69,7.52,18.45,6.27l-.12-.11H11.18A.87.87,0,0,0,10.3,7v4.54H8.78a2,2,0,0,0-2,2v5.5a2,2,0,0,0,2,2h.65v1a2,2,0,0,0,2,2h8.43a2,2,0,0,0,2-2v-1h.71a2,2,0,0,0,2-2v-5.5a2,2,0,0,0-2-2" transform="translate(0 0)"/></g></g></g></svg>