<svg xmlns="http://www.w3.org/2000/svg" xmlns:xlink="http://www.w3.org/1999/xlink" viewBox="0 0 29.23 29.23"><defs><style>.cls-1{fill:none;}.cls-2{clip-path:url(#clip-path);}.cls-3{fill:#1658a4;}.cls-4{fill:#fff;}</style><clipPath id="clip-path" transform="translate(0 0)"><rect class="cls-1" width="29.23" height="29.23"/></clipPath></defs><g id="Ebene_2" data-name="Ebene 2"><g id="Ebene_1-2" data-name="Ebene 1"><g class="cls-2"><rect class="cls-3" width="29.23" height="29.23" rx="3.85"/><path class="cls-4" d="M24.43,8.52a8.16,8.16,0,0,1-2.31.64,4.05,4.05,0,0,0,1.77-2.23,8.1,8.1,0,0,1-2.56,1,4,4,0,0,0-2.94-1.28,4,4,0,0,0-4,4,3.93,3.93,0,0,0,.11.92A11.45,11.45,0,0,1,6.16,7.37a4.1,4.1,0,0,0-.54,2,4,4,0,0,0,1.79,3.35,4.07,4.07,0,0,1-1.83-.5v.05a4,4,0,0,0,3.24,3.95,4.18,4.18,0,0,1-1.07.14A4.54,4.54,0,0,1,7,16.32a4,4,0,0,0,3.76,2.79,8,8,0,0,1-5,1.73,7.5,7.5,0,0,1-1-.06,11.45,11.45,0,0,0,17.63-9.65c0-.17,0-.35,0-.52a8.15,8.15,0,0,0,2-2.09" transform="translate(0 0)"/></g></g></g></svg>