<svg xmlns="http://www.w3.org/2000/svg" viewBox="0 0 113.39 111.48"><defs><style>.cls-1{fill:#0062ae;}.cls-2{fill:#9d9d9c;}.cls-3{fill:#95c11f;}.cls-4{fill:#fff;}</style></defs><g id="Ebene_2" data-name="Ebene 2"><g id="Ebene_1-2" data-name="Ebene 1"><path class="cls-1" d="M.26,100V92.35H1.35l2.44,3.87a22,22,0,0,1,1.37,2.49l0,0c-.09-1-.11-2-.11-3.14v-3.2H6V100H5L2.58,96.12a22,22,0,0,1-1.42-2.56l0,0c.05,1,.06,1.88.06,3.15V100Z"/><path class="cls-1" d="M10.6,97.2c-1.09,0-2.33.17-2.33,1.23a.88.88,0,0,0,.93,1,1.28,1.28,0,0,0,1.4-1.24Zm1,1.48a8.83,8.83,0,0,0,.08,1.32h-.9l-.08-.69h0a2.06,2.06,0,0,1-1.68.81,1.56,1.56,0,0,1-1.68-1.57c0-1.33,1.18-2.06,3.3-2v-.11a1.12,1.12,0,0,0-1.25-1.26,2.67,2.67,0,0,0-1.44.41l-.22-.67a3.57,3.57,0,0,1,1.81-.48c1.68,0,2.09,1.15,2.09,2.24Z"/><path class="cls-1" d="M17.09,99.81a4,4,0,0,1-1.58.31,2.6,2.6,0,0,1-2.73-2.8,2.8,2.8,0,0,1,3-2.93,3.07,3.07,0,0,1,1.38.3l-.22.76a2.42,2.42,0,0,0-1.16-.26,1.9,1.9,0,0,0-1.94,2.07,1.88,1.88,0,0,0,1.9,2.06,2.93,2.93,0,0,0,1.23-.26Z"/><path class="cls-1" d="M18.26,91.94h1v3.44h0a1.91,1.91,0,0,1,.72-.72,2,2,0,0,1,1-.27c.74,0,1.92.46,1.92,2.34V100h-1V96.84c0-.88-.33-1.62-1.27-1.62a1.44,1.44,0,0,0-1.34,1,1.19,1.19,0,0,0-.07.47V100h-1Z"/><path class="cls-1" d="M24.57,91.94h1v3.44h0a2,2,0,0,1,.71-.72,2.07,2.07,0,0,1,1-.27c.74,0,1.92.46,1.92,2.34V100h-1V96.84c0-.88-.33-1.62-1.27-1.62a1.45,1.45,0,0,0-1.34,1,1.41,1.41,0,0,0-.07.47V100h-1Z"/><path class="cls-1" d="M33.76,97.2c-1.09,0-2.32.17-2.32,1.23a.88.88,0,0,0,.92,1,1.4,1.4,0,0,0,1.36-.92,1.33,1.33,0,0,0,0-.32Zm1,1.48a8.83,8.83,0,0,0,.08,1.32h-.9l-.08-.69h0a2,2,0,0,1-1.67.81,1.56,1.56,0,0,1-1.68-1.57c0-1.33,1.18-2.06,3.3-2v-.11a1.12,1.12,0,0,0-1.25-1.26,2.67,2.67,0,0,0-1.44.41l-.23-.67a3.61,3.61,0,0,1,1.82-.48c1.68,0,2.09,1.15,2.09,2.24Z"/><rect class="cls-1" x="36.34" y="91.94" width="0.91" height="8.06"/><path class="cls-1" d="M40.22,93.19v1.32h1.43v.76H40.22v3c0,.68.2,1.07.75,1.07a2,2,0,0,0,.58-.07l.05.76a3.05,3.05,0,0,1-.89.13,1.41,1.41,0,0,1-1.08-.42,2.14,2.14,0,0,1-.38-1.44v-3H38.4v-.76h.85v-1Z"/><path class="cls-1" d="M42.78,94.51h1V100h-1ZM43.89,93a.6.6,0,0,1-.63.62.59.59,0,0,1-.6-.62.6.6,0,0,1,.62-.62.6.6,0,0,1,.61.62"/><path class="cls-1" d="M49.14,96.67a1.2,1.2,0,0,0-.06-.44,1.43,1.43,0,0,0-1.4-1.07c-1,0-1.63.81-1.63,2.08,0,1.08.56,2,1.62,2a1.45,1.45,0,0,0,1.39-1,2.08,2.08,0,0,0,.08-.54Zm1,2.52a3.24,3.24,0,0,1-.79,2.52,3,3,0,0,1-2,.66,3.58,3.58,0,0,1-1.82-.45l.25-.77a3.05,3.05,0,0,0,1.61.44c1,0,1.77-.54,1.77-1.93v-.6h0a2,2,0,0,1-1.75.92A2.46,2.46,0,0,1,45,97.3a2.63,2.63,0,0,1,2.49-2.91,1.84,1.84,0,0,1,1.71.94h0l0-.82h.88c0,.38,0,.84,0,1.49Z"/><path class="cls-1" d="M52.77,97h0a6.86,6.86,0,0,1,.47-.63l1.62-1.89h1.2L54,96.76,56.39,100H55.17l-1.89-2.63-.51.56V100h-1V91.94h1Z"/><path class="cls-1" d="M60.59,96.72a1.41,1.41,0,0,0-1.38-1.61,1.64,1.64,0,0,0-1.53,1.61Zm-2.92.71a1.75,1.75,0,0,0,1.88,1.91,3.57,3.57,0,0,0,1.52-.28l.18.71a4.44,4.44,0,0,1-1.84.35,2.56,2.56,0,0,1-2.7-2.78,2.66,2.66,0,0,1,2.58-3A2.32,2.32,0,0,1,61.56,97a2.69,2.69,0,0,1,0,.46Z"/><path class="cls-1" d="M62.8,94.51h1V100h-1ZM63.91,93a.62.62,0,1,1-1.24,0,.61.61,0,0,1,.63-.62.6.6,0,0,1,.61.62"/><path class="cls-1" d="M66.66,93.19v1.32h1.43v.76H66.66v3c0,.68.19,1.07.75,1.07a2.07,2.07,0,0,0,.58-.07l0,.76a2.92,2.92,0,0,1-.88.13,1.39,1.39,0,0,1-1.08-.42,2.14,2.14,0,0,1-.39-1.44v-3h-.85v-.76h.85v-1Z"/><path class="cls-1" d="M69.08,99a2.86,2.86,0,0,0,1.33.39c.71,0,1-.36,1-.82s-.28-.73-1-1c-1-.36-1.46-.9-1.46-1.56a1.7,1.7,0,0,1,1.89-1.61,2.56,2.56,0,0,1,1.34.34l-.23.73a2.13,2.13,0,0,0-1.13-.33c-.59,0-.91.34-.91.75s.32.66,1,.94c.94.35,1.44.83,1.44,1.65,0,1-.76,1.65-2.05,1.65a3.1,3.1,0,0,1-1.54-.38Z"/><path class="cls-1" d="M73.71,94.51h1V100h-1ZM74.82,93a.62.62,0,1,1-1.23,0,.6.6,0,0,1,.62-.62.6.6,0,0,1,.61.62"/><path class="cls-1" d="M76.37,96c0-.58,0-1-.05-1.48h.89l.06.9h0a2,2,0,0,1,1.81-1c.77,0,2,.46,2,2.34V100h-1V96.83c0-.88-.33-1.62-1.27-1.62a1.43,1.43,0,0,0-1.34,1,1.37,1.37,0,0,0-.07.47V100h-1Z"/><path class="cls-1" d="M82.67,94.51h1V100h-1ZM83.78,93a.62.62,0,1,1-1.23,0,.6.6,0,0,1,.62-.62.59.59,0,0,1,.61.62"/><path class="cls-1" d="M86.53,93.19v1.32H88v.76H86.53v3c0,.68.2,1.07.75,1.07a2.07,2.07,0,0,0,.58-.07l0,.76a2.92,2.92,0,0,1-.88.13,1.41,1.41,0,0,1-1.08-.42,2.14,2.14,0,0,1-.38-1.44v-3H84.7v-.76h.86v-1Z"/><path class="cls-1" d="M89.09,94.51h1V100h-1ZM90.2,93a.62.62,0,1,1-.61-.62.6.6,0,0,1,.61.62"/><path class="cls-1" d="M94.64,97.2c-1.09,0-2.33.17-2.33,1.23a.88.88,0,0,0,.93,1,1.38,1.38,0,0,0,1.35-.92,1,1,0,0,0,0-.32Zm1,1.48a10.4,10.4,0,0,0,.08,1.32h-.89l-.08-.69h0a2,2,0,0,1-1.68.81,1.56,1.56,0,0,1-1.68-1.57c0-1.33,1.18-2.06,3.31-2v-.11a1.13,1.13,0,0,0-1.25-1.26,2.64,2.64,0,0,0-1.44.41l-.23-.67a3.58,3.58,0,0,1,1.82-.48c1.67,0,2.08,1.15,2.08,2.24Z"/><path class="cls-1" d="M98.38,93.19v1.32h1.43v.76H98.38v3c0,.68.19,1.07.75,1.07a1.94,1.94,0,0,0,.57-.07l0,.76a3,3,0,0,1-.89.13,1.37,1.37,0,0,1-1.07-.42,2.08,2.08,0,0,1-.39-1.44v-3h-.85v-.76h.85v-1Z"/><path class="cls-1" d="M100.93,94.51h1V100h-1ZM102,93a.6.6,0,0,1-.63.62.59.59,0,0,1-.6-.62.6.6,0,0,1,.62-.62A.6.6,0,0,1,102,93"/><path class="cls-1" d="M104,94.51l1.08,3.07c.19.51.33,1,.45,1.42h0c.13-.45.28-.91.46-1.42l1.07-3.07h1L106,100h-1l-2.09-5.49Z"/><path class="cls-1" d="M112.42,96.72A1.41,1.41,0,0,0,111,95.11a1.62,1.62,0,0,0-1.53,1.61Zm-2.93.71a1.77,1.77,0,0,0,1.89,1.91,3.6,3.6,0,0,0,1.52-.28l.18.71a4.44,4.44,0,0,1-1.84.35,2.56,2.56,0,0,1-2.7-2.78,2.66,2.66,0,0,1,2.58-3A2.32,2.32,0,0,1,113.39,97a2.52,2.52,0,0,1,0,.46Z"/><path class="cls-1" d="M6.74,110.15a3.29,3.29,0,0,0,1.76.5c1,0,1.6-.53,1.6-1.3s-.41-1.13-1.45-1.51c-1.24-.46-2-1.12-2-2.18a2.21,2.21,0,0,1,2.48-2.08,3.48,3.48,0,0,1,1.68.37l-.27.81a2.83,2.83,0,0,0-1.45-.36c-1,0-1.44.62-1.44,1.14,0,.72.47,1.07,1.52,1.48,1.3.5,1.94,1.12,1.94,2.25s-.86,2.21-2.66,2.21a4,4,0,0,1-2-.5Z"/><path class="cls-1" d="M16.41,111.16a3.77,3.77,0,0,1-1.58.32,2.6,2.6,0,0,1-2.73-2.8,2.8,2.8,0,0,1,3-2.93,3.23,3.23,0,0,1,1.38.29l-.23.76a2.46,2.46,0,0,0-1.15-.26,1.91,1.91,0,0,0-1.94,2.08,1.88,1.88,0,0,0,1.9,2,2.79,2.79,0,0,0,1.23-.26Z"/><path class="cls-1" d="M17.58,103.3h1v3.44h0a1.85,1.85,0,0,1,.72-.72,2,2,0,0,1,1-.27c.74,0,1.92.45,1.92,2.34v3.27h-1V108.2c0-.89-.33-1.62-1.27-1.62a1.44,1.44,0,0,0-1.34,1,1.24,1.24,0,0,0-.07.48v3.32h-1Z"/><path class="cls-1" d="M23.88,107.35c0-.58,0-1,0-1.49h.87l.05.9h0a1.91,1.91,0,0,1,1.74-1,1.61,1.61,0,0,1,1.54,1.1h0a2,2,0,0,1,.62-.72,1.83,1.83,0,0,1,1.2-.38c.74,0,1.82.48,1.82,2.38v3.22h-1v-3.09c0-1.07-.4-1.69-1.19-1.69a1.31,1.31,0,0,0-1.19.89,1.59,1.59,0,0,0-.08.5v3.39h-1v-3.29c0-.87-.38-1.49-1.14-1.49a1.36,1.36,0,0,0-1.24,1,1.29,1.29,0,0,0-.08.49v3.3h-1Z"/><path class="cls-1" d="M33.35,105.86h1v5.49h-1Zm1.12-1.54a.6.6,0,0,1-.64.61.59.59,0,0,1-.6-.61.62.62,0,1,1,1.24,0"/><path class="cls-1" d="M39.5,108.07a1.42,1.42,0,0,0-1.39-1.61,1.64,1.64,0,0,0-1.53,1.61Zm-2.93.72a1.75,1.75,0,0,0,1.88,1.91,3.51,3.51,0,0,0,1.52-.29l.18.72a4.42,4.42,0,0,1-1.83.35,2.56,2.56,0,0,1-2.71-2.78,2.66,2.66,0,0,1,2.58-3,2.3,2.3,0,0,1,2.27,2.57,2.74,2.74,0,0,1,0,.47Z"/><path class="cls-1" d="M41.7,107.58c0-.65,0-1.21,0-1.72h.87l0,1.09h0a1.65,1.65,0,0,1,1.53-1.2l.27,0v.94a1.72,1.72,0,0,0-.34,0A1.39,1.39,0,0,0,42.73,108a3.48,3.48,0,0,0,0,.47v2.93h-1Z"/><path class="cls-1" d="M45.28,110.34a2.75,2.75,0,0,0,1.33.39c.71,0,1-.35,1-.82s-.28-.72-1-1c-1-.36-1.46-.89-1.46-1.55a1.69,1.69,0,0,1,1.89-1.61,2.47,2.47,0,0,1,1.34.34l-.24.73a2.06,2.06,0,0,0-1.12-.34c-.59,0-.91.35-.91.76s.32.65,1,.94c.94.35,1.44.83,1.44,1.64,0,1-.76,1.66-2.05,1.66a3.1,3.1,0,0,1-1.54-.39Z"/><path class="cls-1" d="M51.11,104.54v1.32h1.43v.76H51.11v3c0,.69.2,1.07.75,1.07a1.71,1.71,0,0,0,.58-.07l.05.76a2.7,2.7,0,0,1-.89.14,1.44,1.44,0,0,1-1.08-.42,2.16,2.16,0,0,1-.38-1.44v-3h-.85v-.76h.85v-1Z"/><path class="cls-1" d="M54.23,108.62c0,1.2.68,2.11,1.65,2.11s1.67-.89,1.67-2.13c0-.93-.46-2.1-1.64-2.1s-1.68,1.09-1.68,2.12m4.34-.06a2.69,2.69,0,0,1-2.73,2.92,2.62,2.62,0,0,1-2.64-2.83,2.69,2.69,0,0,1,2.73-2.9,2.59,2.59,0,0,1,2.64,2.81"/><path class="cls-1" d="M66.71,104.27a2.14,2.14,0,0,0-1.12-.29c-1,0-1.36.74-1.36,1.61v.27h3.2v5.5h-1v-4.74h-2.2v4.74h-1v-4.74H60.93v4.74h-1v-4.74h-.76v-.76h.76v-.19a2.51,2.51,0,0,1,.66-1.82,1.88,1.88,0,0,1,1.41-.53,2.36,2.36,0,0,1,1,.24l-.29.74a1.32,1.32,0,0,0-.67-.2,1,1,0,0,0-.72.29,1.92,1.92,0,0,0-.36,1.27v.2h2.31v-.3a2.2,2.2,0,0,1,2.4-2.39,2.88,2.88,0,0,1,1.37.35Z"/><path class="cls-1" d="M69.09,107.35c0-.58,0-1,0-1.49h.89l.06.91h0a2,2,0,0,1,1.82-1c.76,0,1.94.45,1.94,2.34v3.26h-1v-3.16c0-.89-.33-1.62-1.27-1.62a1.43,1.43,0,0,0-1.34,1,1.27,1.27,0,0,0-.07.46v3.3h-1Z"/><path class="cls-1" d="M79.14,108.1a1.54,1.54,0,0,0-1.49-1.57c-1,0-1.64.91-1.64,2.11s.55,2,1.62,2a1.5,1.5,0,0,0,1.46-1.19,1.45,1.45,0,0,0,0-.43Zm1-4.8v6.64c0,.48,0,1,0,1.42h-.88l-.05-1h0a2,2,0,0,1-1.85,1.08A2.51,2.51,0,0,1,75,108.69c0-1.83,1.13-2.94,2.46-2.94a1.83,1.83,0,0,1,1.66.83h0V103.3Z"/><path class="cls-1" d="M86.39,109.85c0,.57,0,1.07,0,1.51h-.88l-.06-.9h0a2,2,0,0,1-1.81,1c-.86,0-1.9-.49-1.9-2.41v-3.21h1v3c0,1,.33,1.76,1.23,1.76a1.42,1.42,0,0,0,1.31-.92,1.29,1.29,0,0,0,.1-.51v-3.36h1Z"/><path class="cls-1" d="M87.92,110.34a2.75,2.75,0,0,0,1.33.39c.71,0,1-.35,1-.82s-.28-.72-1-1c-1-.36-1.46-.89-1.46-1.55a1.69,1.69,0,0,1,1.89-1.61,2.47,2.47,0,0,1,1.34.34l-.24.73a2.06,2.06,0,0,0-1.12-.34c-.59,0-.91.35-.91.76s.32.65,1,.94c.94.35,1.44.83,1.44,1.64,0,1-.76,1.66-2,1.66a3.1,3.1,0,0,1-1.54-.39Z"/><path class="cls-1" d="M93.76,104.54v1.32h1.43v.76H93.76v3c0,.69.19,1.07.74,1.07a1.68,1.68,0,0,0,.58-.07l0,.76a2.65,2.65,0,0,1-.89.14,1.4,1.4,0,0,1-1.07-.42,2.1,2.1,0,0,1-.39-1.44v-3h-.85v-.76h.85v-1Z"/><path class="cls-1" d="M96.31,107.58c0-.65,0-1.21,0-1.72h.87l0,1.09h0a1.65,1.65,0,0,1,1.53-1.2l.27,0v.94a1.72,1.72,0,0,0-.34,0A1.39,1.39,0,0,0,97.34,108a3.48,3.48,0,0,0,0,.47v2.93h-1Z"/><path class="cls-1" d="M100.07,105.86h1v5.49h-1Zm1.11-1.54a.59.59,0,0,1-.63.61.58.58,0,0,1-.6-.61.61.61,0,0,1,.62-.63.6.6,0,0,1,.61.63"/><path class="cls-1" d="M106.21,108.07a1.42,1.42,0,0,0-1.38-1.61,1.64,1.64,0,0,0-1.54,1.61Zm-2.93.72a1.77,1.77,0,0,0,1.89,1.91,3.58,3.58,0,0,0,1.52-.29l.18.72a4.48,4.48,0,0,1-1.84.35,2.56,2.56,0,0,1-2.7-2.78,2.66,2.66,0,0,1,2.58-3,2.31,2.31,0,0,1,2.27,2.57,2.55,2.55,0,0,1,0,.47Z"/><path class="cls-2" d="M64.62,36a6.69,6.69,0,0,0-.58-2.9A5,5,0,0,0,63.46,32a15,15,0,0,0-1.12-1.27,6.33,6.33,0,0,0-1.58-1.13,7.3,7.3,0,0,0-2.31-.72,5.83,5.83,0,0,0-2.12.07,6.24,6.24,0,0,0-1.86.6A12.17,12.17,0,0,0,53,30.4a7.07,7.07,0,0,0-1.57,1.79,6.83,6.83,0,0,0-.95,2.57,7.79,7.79,0,0,0-.05,1.93,5.6,5.6,0,0,0,.66,2.21,9.27,9.27,0,0,0,.9,1.48,7.29,7.29,0,0,0,2.15,1.79,6.56,6.56,0,0,0,2.22.75,8.43,8.43,0,0,0,2.07,0A5.41,5.41,0,0,0,60,42.51a8.34,8.34,0,0,0,1.7-.89,6.76,6.76,0,0,0,1.64-1.69,7.22,7.22,0,0,0,.89-1.75A5.59,5.59,0,0,0,64.62,36M57.56,20.27c.4,0,.79,0,1.18,0a1.27,1.27,0,0,1,1.31,1.34c0,.47,0,.93,0,1.4a2,2,0,0,0,.79,1.74,3.48,3.48,0,0,0,.69.36c.25.11.5.2.75.3a5.66,5.66,0,0,0,.79.27A1.9,1.9,0,0,0,64.84,25a18.23,18.23,0,0,1,1.37-1.27,1.17,1.17,0,0,1,1.2,0c.39.34.75.7,1.13,1.05l.91.88a1.37,1.37,0,0,1-.09,2c-.45.42-.88.87-1.3,1.31a1.84,1.84,0,0,0-.18,1.79,8,8,0,0,1,.37.92,2.39,2.39,0,0,0,1,1.38,1.63,1.63,0,0,0,.9.31c.58,0,1.16,0,1.73,0a1.32,1.32,0,0,1,1.34,1.35,23.62,23.62,0,0,0,0,2.38A1.29,1.29,0,0,1,72,38.41c-.58,0-1.16,0-1.73,0a2,2,0,0,0-1.82,1.24c-.17.52-.45,1-.63,1.52a1.8,1.8,0,0,0,0,1.23,4.33,4.33,0,0,0,1.06,1.3c.26.28.54.55.79.84a1.35,1.35,0,0,1-.06,1.32c-.42.45-.86.89-1.3,1.33-.28.28-.57.57-.88.84a1.22,1.22,0,0,1-1.32,0c-.53-.48-1-1-1.58-1.48a1.63,1.63,0,0,0-.65-.34,1.9,1.9,0,0,0-1.38.11c-.45.24-1,.35-1.4.6a2.3,2.3,0,0,0-.8.72A1.82,1.82,0,0,0,60,48.67c0,.53,0,1.06,0,1.59a1.28,1.28,0,0,1-1.31,1.29c-.8,0-1.61,0-2.41,0A1.31,1.31,0,0,1,55,50.21c0-.46,0-.91,0-1.37a2.13,2.13,0,0,0-.53-1.59,1.49,1.49,0,0,0-.5-.36c-.56-.25-1.11-.5-1.69-.7a1.9,1.9,0,0,0-1.94.47c-.46.48-1,.93-1.45,1.37a1.17,1.17,0,0,1-1.34,0c-.38-.34-.73-.7-1.09-1.05s-.59-.58-.9-.85a1.27,1.27,0,0,1-.18-1.51,7.35,7.35,0,0,1,1-1.09,2.19,2.19,0,0,0,.85-2.36c-.15-.49-.42-.94-.6-1.43a1.73,1.73,0,0,0-.82-1,1.52,1.52,0,0,0-.87-.3c-.55,0-1.1,0-1.65,0A1.31,1.31,0,0,1,41.88,37c0-.78,0-1.56,0-2.33a1.31,1.31,0,0,1,1.24-1.28c.61,0,1.23,0,1.84,0a2,2,0,0,0,1.3-.64,2.5,2.5,0,0,0,.49-.89,8.94,8.94,0,0,0,.46-1.06A1.81,1.81,0,0,0,47,29c-.42-.51-.92-1-1.39-1.44a1.3,1.3,0,0,1-.23-1.48,5.75,5.75,0,0,1,1-1.15c.29-.3.6-.58.88-.89a1.31,1.31,0,0,1,1.86-.09c.45.45.89.91,1.33,1.37a2,2,0,0,0,2,.23c.27-.15.59-.23.87-.37a5.69,5.69,0,0,0,1-.53A1.79,1.79,0,0,0,55,23.26c0-.51,0-1,0-1.53a1.38,1.38,0,0,1,.78-1.39,1.17,1.17,0,0,1,.37-.08c.47,0,.94,0,1.4,0h0"/><path class="cls-2" d="M57.52,31.68a4.23,4.23,0,1,1-.07,8.45,4.23,4.23,0,0,1,.07-8.45"/><path class="cls-2" d="M77,46a4.68,4.68,0,1,0,4.54-4.68A4.69,4.69,0,0,0,77,46m9.36,6.76a8.32,8.32,0,0,0,.39,1c.32.63.27,1.25-.53,1.54-.42.16-.82.36-1.24.52a.88.88,0,0,1-1.2-.49c-.17-.39-.31-.79-.51-1.16a1.1,1.1,0,0,0-.92-.58,7.82,7.82,0,0,0-1.28,0,1.29,1.29,0,0,0-1.07.86c-.13.28-.23.58-.34.88a.91.91,0,0,1-1.3.48,9.32,9.32,0,0,0-1-.42,1,1,0,0,1-.69-1.62A4.09,4.09,0,0,0,77,53a1.42,1.42,0,0,0-.55-1.52c-.23-.19-.44-.41-.67-.6a1.38,1.38,0,0,0-1.35-.08,2.41,2.41,0,0,1-1.3.41.83.83,0,0,1-.7-.54c-.22-.53-.42-1.07-.63-1.61a.83.83,0,0,1,.41-.95,10.07,10.07,0,0,0,1.21-.53A1.16,1.16,0,0,0,74,47a4.78,4.78,0,0,0,.14-1.55,1.43,1.43,0,0,0-1.05-1.19,5.45,5.45,0,0,1-1-.47.69.69,0,0,1-.23-.9c.18-.45.37-.91.54-1.37a.9.9,0,0,1,1.29-.62c.36.12.7.28,1,.43A1.43,1.43,0,0,0,76,41c.23-.25.48-.48.72-.72a1.19,1.19,0,0,0,.23-1.34c-.18-.4-.34-.81-.5-1.22a1,1,0,0,1,.52-1l1.56-.67a.86.86,0,0,1,.92.25,5.74,5.74,0,0,1,.48,1,1.32,1.32,0,0,0,1.52,1.07,9.07,9.07,0,0,0,1.27-.11.9.9,0,0,0,.6-.57c.19-.36.31-.75.48-1.11a.8.8,0,0,1,1.2-.42c.26.12.56.2.83.32s.68.2.92.51a1,1,0,0,1,.08,1,5.26,5.26,0,0,0-.42,1.08,1.19,1.19,0,0,0,.45,1.23c.21.19.41.39.6.59a1.17,1.17,0,0,0,1.18.31A9.89,9.89,0,0,1,90,40.7a.89.89,0,0,1,.72.3,4.18,4.18,0,0,1,.5,1,4.32,4.32,0,0,1,.28.67c.2.7,0,1-.66,1.27-.34.15-.7.28-1,.46a1.11,1.11,0,0,0-.56,1,9.91,9.91,0,0,0,0,1.09,1.39,1.39,0,0,0,.86,1.16,5.74,5.74,0,0,1,1.09.46.81.81,0,0,1,.35,1c-.11.39-.3.76-.45,1.14l-.14.39a.94.94,0,0,1-1.27.51,2.61,2.61,0,0,0-1.64-.44,1.24,1.24,0,0,0-.69.38c-.21.21-.38.44-.6.64a1.28,1.28,0,0,0-.42,1.08"/><path class="cls-2" d="M81.71,43.15a2.8,2.8,0,1,1,0,5.59,2.8,2.8,0,0,1,0-5.59"/><polygon class="cls-1" points="14.14 57.42 14.14 70.97 14.5 74.27 14.3 74.27 4.77 57.42 0.05 57.42 0.05 84.98 5.17 84.98 5.17 71.95 4.93 68.68 5.13 68.68 14.54 84.98 19.26 84.98 19.26 57.42 14.14 57.42"/><path class="cls-1" d="M31.71,81.08a4.68,4.68,0,0,0,2.8-.69,4.43,4.43,0,0,0,1.36-1.47V76.56a10.78,10.78,0,0,0-1.16-.18,12.65,12.65,0,0,0-1.68-.1,8.32,8.32,0,0,0-1.48.14,4.76,4.76,0,0,0-1.32.43,2.53,2.53,0,0,0-.93.77A1.8,1.8,0,0,0,29,78.76a2.23,2.23,0,0,0,.64,1.71,3,3,0,0,0,2.12.61M25,66.63a22.44,22.44,0,0,1,3.64-1.22,20.66,20.66,0,0,1,4.9-.51,11.08,11.08,0,0,1,3.49.49,5.93,5.93,0,0,1,2.32,1.4A5.35,5.35,0,0,1,40.64,69,9.54,9.54,0,0,1,41,71.79c0,1.34,0,2.48-.13,3.43a23.85,23.85,0,0,0-.14,2.52c0,.55,0,1.16.08,1.85,0,.37.09.72.11,1.06h2.56V85h-6.6l-.52-2.68h-.2A6.67,6.67,0,0,1,34,84.41a7.45,7.45,0,0,1-3.91.89,6.64,6.64,0,0,1-4.66-1.58,5.37,5.37,0,0,1-1.72-4.17,6.25,6.25,0,0,1,.61-2.86,5.12,5.12,0,0,1,1.76-2,8.36,8.36,0,0,1,2.78-1.14,16,16,0,0,1,3.61-.37,13,13,0,0,1,1.49.08l1.92.16a4.32,4.32,0,0,0,.08-.79v-.75a2.54,2.54,0,0,0-.86-2.15,4.22,4.22,0,0,0-2.55-.65,11.78,11.78,0,0,0-3.59.52,23,23,0,0,0-2.7,1Z"/><path class="cls-1" d="M48.08,76h4.33v3.89l.24.08a10.8,10.8,0,0,0,2,.65,10,10,0,0,0,2.3.26A5.73,5.73,0,0,0,60.36,80a2.78,2.78,0,0,0,1.23-2.38,2.7,2.7,0,0,0-1-2.17A10.07,10.07,0,0,0,58.1,74c-1-.42-2.06-.84-3.23-1.26a15.12,15.12,0,0,1-3.22-1.6,8.83,8.83,0,0,1-2.49-2.42,6.52,6.52,0,0,1-1-3.78,7.61,7.61,0,0,1,.69-3.25,7.49,7.49,0,0,1,1.93-2.54,9.28,9.28,0,0,1,3-1.65,12,12,0,0,1,3.86-.59,26.39,26.39,0,0,1,4.72.43A13,13,0,0,1,66,58.48v8H61.7V62.11a1,1,0,0,1-.23,0,15.82,15.82,0,0,0-1.87-.38,15,15,0,0,0-2-.13,5.22,5.22,0,0,0-3,.74,2.32,2.32,0,0,0-1.09,2,2.63,2.63,0,0,0,1,2.13A11,11,0,0,0,57,67.93c1,.45,2.06.9,3.23,1.34a17.18,17.18,0,0,1,3.23,1.64A8.93,8.93,0,0,1,66,73.33,6.29,6.29,0,0,1,67,77a8.22,8.22,0,0,1-.79,3.72A7.52,7.52,0,0,1,64,83.39,9.66,9.66,0,0,1,60.64,85a15.47,15.47,0,0,1-4.17.53,16,16,0,0,1-2.78-.23,19.83,19.83,0,0,1-2.36-.59A17.34,17.34,0,0,1,49.42,84c-.55-.26-1-.49-1.34-.67Z"/><path class="cls-1" d="M89.87,83.09a11.46,11.46,0,0,1-3.78,1.83,16.57,16.57,0,0,1-4.53.61A13.08,13.08,0,0,1,77,84.79a9.49,9.49,0,0,1-3.34-2.11,8.87,8.87,0,0,1-2.07-3.29,12.3,12.3,0,0,1-.71-4.25,11.12,11.12,0,0,1,.83-4.41A9.26,9.26,0,0,1,74,67.46a10,10,0,0,1,3.48-2,13.39,13.39,0,0,1,4.37-.69,16.19,16.19,0,0,1,4.14.52,19.69,19.69,0,0,1,2.95,1v6.93H84.63V69.55a10.69,10.69,0,0,0-2.44-.28,7.2,7.2,0,0,0-2.19.34,5.29,5.29,0,0,0-1.93,1.06A5.64,5.64,0,0,0,76.7,72.5a6,6,0,0,0-.53,2.64,6.06,6.06,0,0,0,.43,2.32,5.41,5.41,0,0,0,3.17,3.09,7.05,7.05,0,0,0,2.58.46A9.24,9.24,0,0,0,86,80.37a14,14,0,0,0,2.14-1.1Z"/><path class="cls-1" d="M91.56,57.42h8.38V67.5h.16a6.66,6.66,0,0,1,2.52-2,8.51,8.51,0,0,1,3.7-.75,9.29,9.29,0,0,1,2.76.4,5.08,5.08,0,0,1,2.16,1.3,6,6,0,0,1,1.42,2.46,12.44,12.44,0,0,1,.51,3.84V85h-5.12V73.8a4.87,4.87,0,0,0-1-3.46,3.54,3.54,0,0,0-2.68-1.07,4.44,4.44,0,0,0-2.67.89,4.77,4.77,0,0,0-1.74,2.26V85H94.83V61.75H91.56Z"/><path class="cls-3" d="M91.13,18.15c-1-2.79-9.33-18-9.44-18.15h0c-.1.14-8.47,15.36-9.43,18.15a11.81,11.81,0,0,0-.8,5.49,11.16,11.16,0,0,0,3.92,7.43,9.75,9.75,0,0,0,12.63,0,11.25,11.25,0,0,0,3.92-7.43A12.07,12.07,0,0,0,91.13,18.15Z"/><path class="cls-4" d="M88.23,18.78A12.55,12.55,0,0,1,87,25.29a15.12,15.12,0,0,1-4.66,5,9.41,9.41,0,0,0,2.53-.89,8,8,0,0,0,3.64-3.5,7.5,7.5,0,0,0,.61-4.52A9.52,9.52,0,0,0,88.23,18.78Z"/><path class="cls-1" d="M27.33,39.13a.69.69,0,0,0-.7.71V50.77a.69.69,0,0,0,.7.71H38.08a.69.69,0,0,0,.7-.71V39.84a.69.69,0,0,0-.7-.71Z"/><rect class="cls-4" x="31.65" y="41.33" width="2.11" height="7.95"/><path class="cls-1" d="M14,39.13a.7.7,0,0,0-.71.71V50.77a.7.7,0,0,0,.71.71H24.76a.7.7,0,0,0,.71-.71V39.84a.7.7,0,0,0-.71-.71Z"/><path class="cls-4" d="M19.67,44.52c-1.89-.14-2-.19-2-1a.79.79,0,0,1,.17-.57c.23-.22.83-.25,1.85-.22.72,0,1.17,0,1.35.21a.79.79,0,0,1,.12.56v.38h2.09v-.32c0-2.2-1.69-2.24-3.53-2.28-2.1-.05-4.08-.09-4.13,2.21s1.55,2.34,3.41,2.46l.36,0,.5,0c1.07,0,1.44.07,1.42.91s-.1,1-1.52,1h-.28c-1.8,0-2.05-.15-2-.87v-.49h-2l-.12,0V47c0,2.3,1.8,2.33,3.74,2.37h1A5.26,5.26,0,0,0,22.33,49,2,2,0,0,0,23.39,47C23.44,44.88,22.6,44.72,19.67,44.52Z"/><path class="cls-1" d="M.71,39.13a.7.7,0,0,0-.71.71V50.77a.7.7,0,0,0,.71.71H11.45a.7.7,0,0,0,.71-.71V39.84a.7.7,0,0,0-.71-.71Z"/><polygon class="cls-4" points="8.55 41.33 6.07 47.64 3.58 41.33 1.45 41.33 4.57 49.2 4.6 49.28 7.53 49.28 10.65 41.49 10.71 41.33 8.55 41.33"/></g></g></svg>