<svg xmlns="http://www.w3.org/2000/svg" xmlns:xlink="http://www.w3.org/1999/xlink" viewBox="0 0 29.23 29.23"><defs><style>.cls-1{fill:none;}.cls-2{clip-path:url(#clip-path);}.cls-3{fill:#1658a4;}.cls-4{fill:#fff;}</style><clipPath id="clip-path" transform="translate(0 0)"><rect class="cls-1" width="29.23" height="29.23"/></clipPath></defs><g id="Ebene_2" data-name="Ebene 2"><g id="Ebene_1-2" data-name="Ebene 1"><g class="cls-2"><rect class="cls-3" width="29.23" height="29.23" rx="3.85"/><path class="cls-4" d="M7,8a.49.49,0,0,0-.44.2.51.51,0,0,0,0,.49l2.14,3.7h0L5.35,18.31a.5.5,0,0,0,0,.49.46.46,0,0,0,.41.21H8.92a1,1,0,0,0,.87-.61l3.41-6L11,8.58a1,1,0,0,0-.88-.6Z" transform="translate(0 0)"/><path class="cls-4" d="M20.27,3.65a.93.93,0,0,0-.85.61l-7,12.47L16.88,25a1,1,0,0,0,.88.6h3.16a.47.47,0,0,0,.42-.2.5.5,0,0,0,0-.49l-4.46-8.14v0l7-12.38a.48.48,0,0,0,0-.48.45.45,0,0,0-.42-.21Z" transform="translate(0 0)"/></g></g></g></svg>